<?xml version="1.0" standalone="no"?>
<!DOCTYPE svg PUBLIC "-//W3C//DTD SVG 20010904//EN"
 "http://www.w3.org/TR/2001/REC-SVG-20010904/DTD/svg10.dtd">
<svg version="1.0" xmlns="http://www.w3.org/2000/svg"
 width="50px" height="50px" viewBox="0 0 879.000000 1280.000000"
 preserveAspectRatio="xMidYMid meet">
<metadata>
Created by potrace 1.15, written by Peter Selinger 2001-2017
</metadata>
<g transform="translate(0.000000,1280.000000) scale(0.100000,-0.100000)"
fill="#fff" stroke="none">
<path d="M5240 12794 c-298 -39 -657 -244 -984 -563 -371 -362 -524 -653 -620
-1181 -51 -281 -112 -726 -138 -1005 -17 -188 -17 -764 0 -920 34 -304 96
-567 191 -804 20 -49 20 -53 4 -48 -344 101 -483 134 -708 167 -521 76 -1062
56 -1510 -56 -391 -99 -709 -275 -956 -531 -156 -162 -258 -321 -306 -477 -28
-95 -48 -341 -38 -476 20 -274 134 -586 310 -850 38 -58 82 -124 96 -146 l27
-40 -93 4 c-70 3 -106 0 -146 -13 -159 -51 -282 -196 -341 -400 -20 -69 -23
-102 -22 -235 1 -303 76 -620 214 -906 55 -113 229 -380 334 -511 36 -45 66
-84 66 -87 0 -3 -7 -6 -15 -6 -30 0 -117 -52 -162 -96 -118 -118 -158 -341
-118 -651 59 -448 212 -810 446 -1058 45 -47 80 -87 78 -89 -2 -1 -20 -12 -40
-24 -95 -57 -140 -200 -119 -374 28 -232 145 -459 345 -666 148 -155 333 -286
574 -407 228 -115 373 -158 681 -205 113 -17 257 -42 320 -56 361 -80 347 -78
600 -78 198 0 255 3 364 22 147 25 287 60 395 97 l74 25 76 -24 c163 -51 233
-61 451 -61 207 0 307 11 535 61 315 68 763 254 1090 454 137 84 273 189 396
307 l56 54 17 -26 c29 -45 89 -65 192 -65 112 0 207 16 467 80 453 110 618
198 779 413 121 164 190 319 347 779 130 381 179 550 226 782 85 423 109 692
109 1251 0 479 -18 1163 -35 1282 -41 305 -178 534 -462 779 -236 203 -508
350 -789 429 l-56 16 -12 52 c-22 92 -80 258 -125 353 -94 202 -183 314 -463
581 -413 394 -505 496 -626 693 -128 207 -189 351 -227 542 -50 254 -70 440
-69 668 0 217 9 310 75 780 96 688 133 1019 142 1275 12 379 -40 690 -148 871
-80 136 -229 245 -399 294 -74 21 -268 34 -350 24z m238 -140 c242 -49 396
-214 457 -489 65 -292 62 -583 -10 -1155 -13 -107 -38 -312 -55 -455 -16 -143
-43 -321 -59 -395 -89 -405 -105 -852 -41 -1159 47 -225 165 -516 282 -696 87
-135 247 -313 525 -583 383 -374 478 -484 569 -664 136 -269 198 -565 240
-1148 29 -402 3 -653 -96 -900 -12 -30 -63 -131 -113 -224 -92 -172 -149 -307
-162 -383 -6 -39 -5 -44 19 -54 34 -16 101 3 120 34 7 12 21 54 31 92 11 43
63 158 135 300 131 256 170 355 199 509 35 179 43 308 32 530 -11 207 -40 499
-65 641 -8 44 -13 81 -11 83 5 5 185 -68 257 -104 237 -119 446 -281 612 -475
158 -183 232 -358 255 -601 9 -97 15 -276 30 -1013 13 -624 -18 -1079 -100
-1471 -43 -210 -87 -355 -196 -643 -53 -141 -122 -337 -155 -436 -32 -99 -86
-236 -119 -304 -55 -112 -69 -132 -147 -210 -80 -79 -98 -92 -235 -159 -299
-148 -423 -186 -617 -187 -111 0 -130 2 -167 23 -67 35 -76 55 -63 143 16 104
43 194 102 338 61 147 59 157 -23 154 -30 -2 -66 -8 -81 -14 -37 -15 -130
-126 -186 -221 -100 -173 -412 -531 -627 -720 -71 -62 -116 -92 -210 -138
-355 -174 -699 -280 -1005 -311 -129 -13 -347 -6 -450 15 l-65 12 33 20 c313
181 605 423 791 654 139 172 317 493 410 738 67 175 134 505 167 822 18 175
14 267 -18 368 -26 86 -43 119 -127 247 -86 130 -105 183 -99 279 6 93 34 154
101 219 62 61 153 109 264 138 100 27 268 29 893 10 250 -8 467 -11 482 -8 38
10 86 53 73 66 -5 5 -82 22 -170 36 -420 69 -822 199 -1100 357 -140 79 -241
154 -349 258 -182 177 -292 379 -326 606 -9 58 -10 179 -5 454 9 477 -2 573
-86 748 -51 106 -146 208 -313 334 -67 51 -143 113 -170 138 -50 47 -149 172
-250 320 -76 110 -93 128 -127 135 -46 10 -64 -2 -105 -68 -101 -165 -285
-302 -481 -359 -71 -21 -99 -23 -308 -23 -215 0 -234 2 -295 23 -105 38 -176
88 -325 229 -77 72 -171 157 -210 188 -163 131 -368 251 -529 310 -69 25 -81
27 -116 16 -46 -14 -79 -53 -61 -74 6 -7 53 -30 104 -50 213 -85 383 -202 702
-487 477 -425 627 -516 819 -495 151 16 313 77 459 173 118 77 213 89 398 52
204 -42 343 -109 472 -230 90 -84 155 -183 193 -295 32 -95 43 -275 25 -391
-37 -237 -147 -467 -297 -618 -269 -272 -641 -376 -1345 -376 -420 0 -697 80
-903 261 -46 41 -46 41 -40 92 4 38 -1 80 -20 157 -14 58 -26 124 -26 147 0
32 -5 45 -20 53 -26 14 -83 3 -115 -22 -34 -26 -33 -92 0 -218 14 -52 24 -105
21 -116 -10 -37 -68 -57 -155 -52 -112 6 -220 55 -626 281 -474 265 -730 494
-951 852 -125 204 -209 407 -255 625 -32 145 -34 448 -5 555 52 193 165 381
324 544 279 285 570 415 1062 476 261 33 1007 29 1290 -5 351 -44 602 -142
775 -303 82 -76 114 -88 168 -62 57 27 56 43 -13 161 -180 308 -283 670 -321
1129 -17 204 -6 719 20 960 133 1225 228 1502 666 1941 418 419 794 589 1143
518z m-4868 -6865 l65 -10 115 -113 c209 -204 427 -358 752 -530 310 -164 575
-269 1043 -416 426 -133 509 -145 965 -137 435 8 639 38 911 132 185 65 305
58 476 -29 251 -126 361 -274 379 -511 17 -219 -55 -460 -191 -633 -191 -244
-678 -525 -1235 -714 -491 -166 -763 -204 -977 -137 l-32 10 56 30 c82 43 147
93 242 184 74 72 171 184 171 199 0 11 -99 6 -125 -6 -14 -6 -51 -45 -84 -87
-139 -180 -297 -295 -423 -308 -62 -6 -218 23 -328 62 -116 40 -453 185 -530
227 -260 142 -795 518 -1071 752 -126 108 -254 274 -352 456 -65 122 -202 444
-232 547 -89 308 -97 657 -17 827 80 170 219 238 422 205z m129 -2167 c224
-191 601 -453 891 -619 155 -89 489 -256 615 -306 145 -58 254 -84 428 -102
78 -8 202 -22 275 -31 273 -34 538 11 1020 171 183 61 303 114 611 272 303
155 293 153 425 89 118 -57 199 -143 255 -270 44 -101 81 -288 81 -411 0 -203
-73 -323 -295 -490 -170 -126 -212 -147 -560 -275 -49 -18 -180 -71 -290 -118
-561 -238 -707 -280 -995 -289 l-174 -6 48 54 c26 29 56 70 67 91 27 54 49
144 49 205 l0 53 -42 0 c-24 0 -59 -8 -78 -18 -34 -16 -35 -20 -42 -87 -13
-130 -57 -212 -132 -246 -31 -14 -65 -19 -137 -19 -115 0 -208 24 -393 101
-176 74 -251 99 -551 189 -608 182 -724 236 -919 428 -176 173 -276 386 -360
767 -123 559 -96 838 89 903 48 17 54 15 114 -36z m347 -1921 c185 -61 440
-141 689 -216 105 -32 264 -86 355 -122 311 -122 400 -149 620 -189 177 -31
422 -42 555 -25 172 23 461 108 665 196 152 65 413 167 505 196 105 34 237 39
322 14 62 -18 134 -80 161 -138 30 -62 47 -236 32 -329 -23 -148 -74 -220
-325 -454 -189 -176 -231 -208 -395 -301 -310 -175 -530 -225 -985 -227 -293
-1 -410 18 -472 76 -43 40 -32 73 48 147 78 73 83 96 23 107 -45 8 -85 -7
-142 -55 -183 -153 -476 -173 -777 -54 -197 78 -491 241 -621 344 -152 121
-320 340 -423 555 -91 187 -129 354 -102 437 14 43 63 87 96 87 13 0 90 -22
171 -49z"/>
</g>
</svg>
